<?xml version="1.0" encoding="UTF-8"?>
<svg xmlns="http://www.w3.org/2000/svg" xmlns:xlink="http://www.w3.org/1999/xlink" width="360pt" height="222pt" viewBox="0 0 360 222" version="1.1">
<g id="surface8">
<path style="fill:none;stroke-width:1.6;stroke-linecap:square;stroke-linejoin:miter;stroke:rgb(36.84082%,50.67749%,70.979309%);stroke-opacity:1;stroke-miterlimit:3.25;" d="M 73.199219 116.246094 L 73.304688 116.246094 L 73.410156 116.242188 L 73.625 116.234375 L 74.046875 116.222656 L 74.894531 116.195312 L 75 116.191406 L 75.109375 116.191406 L 75.742188 116.167969 L 76.59375 116.136719 L 77.015625 116.121094 L 77.441406 116.101562 L 79.984375 115.996094 L 80.097656 115.992188 L 80.214844 115.988281 L 80.441406 115.976562 L 80.902344 115.957031 L 81.820312 115.921875 L 81.9375 115.917969 L 82.050781 115.914062 L 82.742188 115.890625 L 82.855469 115.886719 L 82.972656 115.882812 L 83.199219 115.875 L 83.660156 115.859375 L 83.777344 115.855469 L 83.890625 115.851562 L 84.121094 115.847656 L 84.234375 115.84375 L 84.351562 115.839844 L 84.582031 115.835938 L 84.808594 115.828125 L 85.039062 115.824219 L 85.15625 115.824219 L 85.269531 115.820312 L 85.5 115.816406 L 85.613281 115.816406 L 85.730469 115.8125 L 85.960938 115.8125 L 86.074219 115.808594 L 86.417969 115.808594 L 86.535156 115.804688 L 87.339844 115.804688 L 87.445312 115.808594 L 87.875 115.808594 L 87.980469 115.8125 L 88.089844 115.8125 L 88.195312 115.816406 L 88.410156 115.816406 L 88.519531 115.820312 L 88.625 115.820312 L 88.734375 115.824219 L 88.839844 115.828125 L 89.054688 115.832031 L 89.160156 115.835938 L 89.269531 115.839844 L 89.484375 115.84375 L 89.589844 115.847656 L 89.699219 115.851562 L 89.914062 115.859375 L 90.019531 115.867188 L 90.128906 115.871094 L 90.34375 115.878906 L 90.769531 115.902344 L 90.878906 115.90625 L 90.984375 115.914062 L 91.199219 115.925781 L 91.628906 115.953125 L 91.738281 115.960938 L 91.84375 115.96875 L 92.488281 116.015625 L 92.59375 116.023438 L 92.703125 116.035156 L 92.917969 116.050781 L 93.347656 116.09375 L 94.203125 116.179688 L 94.625 116.226562 L 95.046875 116.277344 L 95.886719 116.386719 L 97.570312 116.628906 L 97.78125 116.660156 L 97.992188 116.695312 L 98.414062 116.761719 L 99.253906 116.898438 L 100.9375 117.179688 L 101.164062 117.21875 L 101.394531 117.253906 L 101.851562 117.328125 L 102.761719 117.472656 L 102.875 117.488281 L 102.992188 117.507812 L 103.21875 117.539062 L 103.675781 117.605469 L 104.589844 117.722656 L 104.703125 117.738281 L 104.816406 117.75 L 105.042969 117.777344 L 105.160156 117.789062 L 105.5 117.824219 L 105.617188 117.835938 L 105.730469 117.84375 L 105.957031 117.863281 L 106.070312 117.875 L 106.1875 117.882812 L 106.640625 117.914062 L 106.757812 117.921875 L 106.871094 117.925781 L 106.984375 117.933594 L 107.097656 117.9375 L 107.214844 117.945312 L 107.554688 117.957031 L 107.667969 117.957031 L 107.785156 117.960938 L 107.898438 117.960938 L 108.011719 117.964844 L 108.453125 117.964844 L 108.558594 117.960938 L 108.664062 117.960938 L 108.773438 117.957031 L 108.878906 117.953125 L 108.984375 117.953125 L 109.089844 117.949219 L 109.199219 117.941406 L 109.410156 117.933594 L 109.519531 117.925781 L 109.625 117.921875 L 109.730469 117.914062 L 109.945312 117.898438 L 110.050781 117.886719 L 110.15625 117.878906 L 110.371094 117.859375 L 110.582031 117.835938 L 110.796875 117.808594 L 110.902344 117.796875 L 111.007812 117.78125 L 111.222656 117.75 L 111.648438 117.683594 L 111.859375 117.644531 L 112.074219 117.605469 L 112.5 117.519531 L 112.605469 117.496094 L 112.710938 117.46875 L 112.925781 117.421875 L 113.351562 117.3125 L 113.457031 117.285156 L 113.5625 117.253906 L 113.777344 117.195312 L 114.203125 117.066406 L 115.054688 116.777344 L 115.171875 116.734375 L 115.285156 116.695312 L 115.515625 116.605469 L 115.980469 116.421875 L 116.902344 116.027344 L 117.015625 115.976562 L 117.132812 115.921875 L 117.363281 115.816406 L 117.824219 115.59375 L 118.75 115.128906 L 118.863281 115.070312 L 118.980469 115.011719 L 119.210938 114.886719 L 119.671875 114.640625 L 120.59375 114.136719 L 122.441406 113.121094 L 122.554688 113.0625 L 122.667969 113 L 122.894531 112.878906 L 123.347656 112.644531 L 124.253906 112.191406 L 124.480469 112.082031 L 124.707031 111.980469 L 125.160156 111.78125 L 125.273438 111.730469 L 125.386719 111.683594 L 125.613281 111.59375 L 126.179688 111.378906 L 126.292969 111.339844 L 126.519531 111.265625 L 126.746094 111.195312 L 126.972656 111.128906 L 127.199219 111.066406 L 127.652344 110.957031 L 127.878906 110.914062 L 127.992188 110.890625 L 128.105469 110.875 L 128.21875 110.855469 L 128.558594 110.808594 L 128.671875 110.796875 L 129.125 110.765625 L 129.238281 110.761719 L 129.578125 110.761719 L 129.691406 110.765625 L 129.902344 110.773438 L 130.011719 110.78125 L 130.117188 110.789062 L 130.433594 110.824219 L 130.539062 110.839844 L 130.644531 110.859375 L 130.75 110.875 L 130.855469 110.894531 L 131.171875 110.964844 L 131.382812 111.019531 L 131.59375 111.082031 L 131.804688 111.152344 L 131.914062 111.1875 L 132.019531 111.226562 L 132.230469 111.308594 L 132.335938 111.351562 L 132.441406 111.398438 L 132.652344 111.496094 L 133.074219 111.710938 L 133.285156 111.828125 L 133.496094 111.953125 L 133.921875 112.226562 L 134.027344 112.296875 L 134.132812 112.371094 L 134.34375 112.527344 L 134.765625 112.855469 L 134.976562 113.027344 L 135.1875 113.210938 L 135.609375 113.59375 L 136.457031 114.445312 L 136.570312 114.566406 L 136.6875 114.691406 L 136.914062 114.949219 L 137.375 115.480469 L 138.289062 116.621094 L 140.125 119.160156 L 140.351562 119.496094 L 140.582031 119.832031 L 141.039062 120.515625 L 141.957031 121.902344 L 143.792969 124.644531 L 143.898438 124.800781 L 144.003906 124.953125 L 144.21875 125.261719 L 144.648438 125.859375 L 145.503906 126.992188 L 145.609375 127.128906 L 145.71875 127.261719 L 145.929688 127.523438 L 146.359375 128.023438 L 146.464844 128.144531 L 146.574219 128.261719 L 146.785156 128.488281 L 147.214844 128.921875 L 147.320312 129.023438 L 147.429688 129.121094 L 147.644531 129.3125 L 147.855469 129.492188 L 148.070312 129.660156 L 148.179688 129.742188 L 148.285156 129.820312 L 148.5 129.964844 L 148.710938 130.097656 L 148.925781 130.21875 L 149.035156 130.273438 L 149.140625 130.328125 L 149.246094 130.378906 L 149.355469 130.421875 L 149.460938 130.464844 L 149.570312 130.503906 L 149.675781 130.539062 L 149.78125 130.570312 L 149.890625 130.601562 L 149.996094 130.625 L 150.105469 130.648438 L 150.316406 130.679688 L 150.425781 130.6875 L 150.53125 130.695312 L 150.636719 130.699219 L 150.847656 130.691406 L 150.953125 130.683594 L 151.058594 130.671875 L 151.164062 130.65625 L 151.269531 130.636719 L 151.371094 130.609375 L 151.476562 130.582031 L 151.582031 130.550781 L 151.6875 130.515625 L 151.792969 130.476562 L 151.898438 130.433594 L 152.003906 130.386719 L 152.105469 130.335938 L 152.316406 130.21875 L 152.421875 130.15625 L 152.527344 130.089844 L 152.734375 129.941406 L 152.945312 129.777344 L 153.15625 129.597656 L 153.261719 129.5 L 153.367188 129.398438 L 153.574219 129.183594 L 153.996094 128.707031 L 154.101562 128.574219 L 154.203125 128.441406 L 154.414062 128.160156 L 154.832031 127.546875 L 154.9375 127.382812 L 155.042969 127.214844 L 155.253906 126.863281 L 155.671875 126.117188 L 155.777344 125.921875 L 155.882812 125.722656 L 156.09375 125.308594 L 156.511719 124.433594 L 157.351562 122.5 L 157.464844 122.21875 L 157.578125 121.933594 L 157.804688 121.351562 L 158.261719 120.140625 L 159.171875 117.542969 L 160.992188 111.773438 L 161.105469 111.394531 L 161.21875 111.011719 L 161.449219 110.246094 L 161.902344 108.695312 L 162.8125 105.554688 L 164.632812 99.347656 L 164.742188 98.996094 L 164.847656 98.644531 L 165.058594 97.953125 L 165.484375 96.59375 L 166.332031 94.011719 L 166.441406 93.703125 L 166.546875 93.394531 L 166.757812 92.796875 L 167.183594 91.648438 L 168.03125 89.5625 L 168.136719 89.324219 L 168.246094 89.089844 L 168.457031 88.640625 L 168.5625 88.421875 L 168.667969 88.210938 L 168.882812 87.804688 L 168.988281 87.609375 L 169.09375 87.421875 L 169.304688 87.0625 L 169.414062 86.894531 L 169.519531 86.730469 L 169.730469 86.421875 L 169.835938 86.277344 L 169.945312 86.140625 L 170.050781 86.011719 L 170.15625 85.886719 L 170.261719 85.769531 L 170.367188 85.660156 L 170.582031 85.464844 L 170.6875 85.375 L 170.792969 85.292969 L 170.898438 85.222656 L 171.003906 85.15625 L 171.113281 85.097656 L 171.21875 85.046875 L 171.324219 85.003906 L 171.429688 84.964844 L 171.546875 84.9375 L 171.660156 84.914062 L 171.777344 84.902344 L 171.890625 84.902344 L 172.003906 84.910156 L 172.121094 84.925781 L 172.234375 84.953125 L 172.351562 84.988281 L 172.464844 85.03125 L 172.582031 85.085938 L 172.695312 85.152344 L 172.8125 85.226562 L 172.925781 85.3125 L 173.042969 85.40625 L 173.15625 85.507812 L 173.273438 85.625 L 173.386719 85.746094 L 173.5 85.882812 L 173.617188 86.027344 L 173.730469 86.179688 L 173.847656 86.34375 L 173.960938 86.519531 L 174.191406 86.898438 L 174.308594 87.101562 L 174.421875 87.316406 L 174.652344 87.777344 L 175.113281 88.820312 L 175.226562 89.105469 L 175.34375 89.402344 L 175.574219 90.023438 L 176.035156 91.386719 L 176.148438 91.753906 L 176.265625 92.128906 L 176.496094 92.910156 L 176.953125 94.585938 L 177.070312 95.027344 L 177.183594 95.480469 L 177.414062 96.410156 L 177.875 98.382812 L 178.796875 102.734375 L 178.910156 103.304688 L 179.023438 103.878906 L 179.25 105.054688 L 179.699219 107.488281 L 180.605469 112.65625 L 182.414062 123.898438 L 182.523438 124.628906 L 182.636719 125.359375 L 182.863281 126.828125 L 183.316406 129.78125 L 184.21875 135.707031 L 186.027344 147.207031 L 186.238281 148.488281 L 186.449219 149.746094 L 186.871094 152.207031 L 187.714844 156.839844 L 187.820312 157.390625 L 187.925781 157.933594 L 188.136719 158.992188 L 188.558594 161.019531 L 188.664062 161.507812 L 188.769531 161.984375 L 188.980469 162.910156 L 189.402344 164.65625 L 189.503906 165.066406 L 189.609375 165.46875 L 189.820312 166.242188 L 189.925781 166.613281 L 190.03125 166.976562 L 190.242188 167.664062 L 190.347656 167.992188 L 190.453125 168.308594 L 190.664062 168.910156 L 190.769531 169.191406 L 190.875 169.464844 L 191.085938 169.972656 L 191.191406 170.207031 L 191.296875 170.429688 L 191.402344 170.640625 L 191.507812 170.839844 L 191.613281 171.027344 L 191.71875 171.199219 L 191.824219 171.359375 L 191.929688 171.507812 L 192.035156 171.644531 L 192.140625 171.765625 L 192.246094 171.875 L 192.351562 171.972656 L 192.457031 172.054688 L 192.5625 172.125 L 192.667969 172.183594 L 192.773438 172.226562 L 192.886719 172.253906 L 193 172.269531 L 193.117188 172.269531 L 193.230469 172.253906 L 193.34375 172.21875 L 193.457031 172.167969 L 193.574219 172.101562 L 193.6875 172.019531 L 193.800781 171.921875 L 193.914062 171.804688 L 194.03125 171.671875 L 194.144531 171.523438 L 194.257812 171.355469 L 194.371094 171.175781 L 194.488281 170.972656 L 194.601562 170.757812 L 194.714844 170.523438 L 194.828125 170.273438 L 195.058594 169.726562 L 195.171875 169.425781 L 195.285156 169.105469 L 195.515625 168.421875 L 195.628906 168.054688 L 195.746094 167.667969 L 195.972656 166.851562 L 196.429688 165.015625 L 196.542969 164.511719 L 196.660156 163.996094 L 196.886719 162.914062 L 197.34375 160.558594 L 197.457031 159.929688 L 197.574219 159.285156 L 197.800781 157.953125 L 198.257812 155.105469 L 198.375 154.355469 L 198.488281 153.59375 L 198.714844 152.023438 L 199.171875 148.71875 L 200.085938 141.488281 L 200.195312 140.597656 L 200.300781 139.691406 L 200.515625 137.859375 L 200.941406 134.078125 L 201.792969 126.136719 L 203.5 109.121094 L 203.609375 108.023438 L 203.714844 106.925781 L 203.929688 104.726562 L 204.355469 100.3125 L 205.207031 91.492188 L 206.914062 74.414062 L 207.03125 73.304688 L 207.144531 72.207031 L 207.378906 70.035156 L 207.839844 65.808594 L 207.957031 64.777344 L 208.070312 63.757812 L 208.300781 61.753906 L 208.765625 57.898438 L 208.878906 56.96875 L 208.996094 56.050781 L 209.226562 54.257812 L 209.691406 50.855469 L 209.804688 50.046875 L 209.921875 49.25 L 210.152344 47.714844 L 210.613281 44.847656 L 210.730469 44.175781 L 210.84375 43.523438 L 211.078125 42.277344 L 211.191406 41.683594 L 211.308594 41.105469 L 211.539062 40.015625 L 211.65625 39.503906 L 211.769531 39.007812 L 212 38.085938 L 212.117188 37.65625 L 212.234375 37.246094 L 212.464844 36.492188 L 212.578125 36.148438 L 212.695312 35.828125 L 212.8125 35.527344 L 212.925781 35.253906 L 213.042969 35 L 213.15625 34.769531 L 213.273438 34.5625 L 213.386719 34.375 L 213.503906 34.214844 L 213.621094 34.078125 L 213.734375 33.964844 L 213.851562 33.871094 L 213.964844 33.804688 L 214.082031 33.761719 L 214.199219 33.742188 L 214.3125 33.746094 L 214.425781 33.773438 L 214.539062 33.828125 L 214.652344 33.902344 L 214.765625 34 L 214.878906 34.121094 L 214.996094 34.265625 L 215.109375 34.433594 L 215.222656 34.625 L 215.335938 34.839844 L 215.449219 35.078125 L 215.5625 35.339844 L 215.675781 35.625 L 215.789062 35.933594 L 215.902344 36.265625 L 216.128906 37 L 216.242188 37.402344 L 216.355469 37.824219 L 216.582031 38.746094 L 216.695312 39.242188 L 216.808594 39.757812 L 217.039062 40.863281 L 217.152344 41.449219 L 217.265625 42.058594 L 217.492188 43.34375 L 217.945312 46.179688 L 218.058594 46.941406 L 218.171875 47.726562 L 218.398438 49.359375 L 218.851562 52.875 L 218.964844 53.804688 L 219.078125 54.753906 L 219.308594 56.710938 L 219.761719 60.855469 L 219.875 61.9375 L 219.988281 63.039062 L 220.214844 65.292969 L 220.667969 70 L 221.578125 80.15625 L 221.683594 81.398438 L 221.789062 82.652344 L 222 85.195312 L 222.425781 90.394531 L 223.269531 101.214844 L 224.964844 123.914062 L 225.386719 129.679688 L 225.8125 135.4375 L 226.660156 146.828125 L 228.351562 168.46875 L 228.46875 169.855469 L 228.582031 171.226562 L 228.8125 173.925781 L 229.269531 179.15625 L 229.386719 180.425781 L 229.5 181.679688 L 229.730469 184.132812 L 230.191406 188.832031 L 230.304688 189.957031 L 230.417969 191.066406 L 230.648438 193.226562 L 231.109375 197.292969 L 231.222656 198.257812 L 231.335938 199.199219 L 231.566406 201.015625 L 232.027344 204.371094 L 232.140625 205.152344 L 232.257812 205.90625 L 232.484375 207.34375 L 232.601562 208.023438 L 232.714844 208.679688 L 232.945312 209.914062 L 233.058594 210.492188 L 233.175781 211.046875 L 233.402344 212.070312 L 233.519531 212.542969 L 233.632812 212.992188 L 233.863281 213.800781 L 233.976562 214.167969 L 234.09375 214.503906 L 234.207031 214.8125 L 234.320312 215.09375 L 234.4375 215.347656 L 234.550781 215.574219 L 234.667969 215.773438 L 234.78125 215.941406 L 234.894531 216.085938 L 235.011719 216.199219 L 235.125 216.28125 L 235.242188 216.339844 L 235.355469 216.367188 L 235.46875 216.367188 L 235.585938 216.339844 L 235.699219 216.28125 L 235.808594 216.203125 L 235.914062 216.097656 L 236.019531 215.96875 L 236.128906 215.816406 L 236.234375 215.636719 L 236.34375 215.433594 L 236.449219 215.203125 L 236.558594 214.953125 L 236.664062 214.671875 L 236.773438 214.371094 L 236.878906 214.042969 L 236.984375 213.691406 L 237.09375 213.316406 L 237.199219 212.914062 L 237.414062 212.042969 L 237.523438 211.570312 L 237.628906 211.070312 L 237.84375 210.007812 L 237.949219 209.4375 L 238.058594 208.84375 L 238.273438 207.589844 L 238.378906 206.929688 L 238.488281 206.246094 L 238.699219 204.808594 L 239.128906 201.664062 L 239.238281 200.824219 L 239.34375 199.960938 L 239.558594 198.175781 L 239.988281 194.351562 L 240.84375 185.765625 L 240.953125 184.609375 L 241.058594 183.433594 L 241.273438 181.035156 L 241.703125 176.042969 L 242.558594 165.34375 L 242.664062 163.972656 L 242.769531 162.589844 L 242.980469 159.792969 L 243.398438 154.066406 L 244.242188 142.195312 L 245.921875 117.417969 L 246.34375 111.152344 L 246.761719 104.902344 L 247.601562 92.566406 L 249.285156 69.203125 L 249.398438 67.710938 L 249.511719 66.234375 L 249.738281 63.320312 L 250.195312 57.683594 L 250.308594 56.316406 L 250.421875 54.964844 L 250.652344 52.316406 L 251.109375 47.246094 L 251.222656 46.027344 L 251.335938 44.828125 L 251.5625 42.496094 L 252.019531 38.085938 L 252.132812 37.039062 L 252.246094 36.011719 L 252.476562 34.035156 L 252.929688 30.363281 L 253.046875 29.503906 L 253.160156 28.671875 L 253.386719 27.085938 L 253.5 26.328125 L 253.617188 25.597656 L 253.84375 24.21875 L 253.957031 23.566406 L 254.070312 22.941406 L 254.300781 21.769531 L 254.414062 21.222656 L 254.527344 20.707031 L 254.753906 19.753906 L 254.871094 19.316406 L 254.984375 18.910156 L 255.097656 18.527344 L 255.210938 18.175781 L 255.324219 17.851562 L 255.4375 17.554688 L 255.554688 17.285156 L 255.667969 17.042969 L 255.78125 16.828125 L 255.894531 16.644531 L 256.007812 16.488281 L 256.125 16.359375 L 256.238281 16.257812 L 256.351562 16.183594 L 256.464844 16.140625 L 256.578125 16.125 L 256.6875 16.132812 L 256.792969 16.167969 L 256.898438 16.226562 L 257.003906 16.3125 L 257.109375 16.417969 L 257.21875 16.550781 L 257.324219 16.707031 L 257.429688 16.886719 L 257.535156 17.09375 L 257.644531 17.320312 L 257.75 17.574219 L 257.855469 17.847656 L 257.960938 18.148438 L 258.070312 18.472656 L 258.28125 19.191406 L 258.386719 19.585938 L 258.492188 20 L 258.707031 20.90625 L 258.8125 21.390625 L 258.917969 21.898438 L 259.132812 22.984375 L 259.238281 23.558594 L 259.34375 24.15625 L 259.558594 25.414062 L 259.984375 28.191406 L 260.089844 28.933594 L 260.195312 29.703125 L 260.410156 31.292969 L 260.835938 34.714844 L 260.941406 35.617188 L 261.046875 36.539062 L 261.257812 38.433594 L 261.683594 42.4375 L 261.792969 43.480469 L 261.898438 44.539062 L 262.109375 46.703125 L 262.535156 51.21875 L 263.386719 60.910156 L 263.503906 62.285156 L 263.617188 63.671875 L 263.847656 66.480469 L 264.308594 72.242188 L 265.230469 84.21875 L 267.078125 109.144531 L 267.191406 110.710938 L 267.308594 112.277344 L 267.539062 115.402344 L 268 121.613281 L 268.921875 133.773438 L 269.035156 135.261719 L 269.152344 136.738281 L 269.382812 139.667969 L 269.84375 145.398438 L 270.765625 156.28125 L 270.878906 157.554688 L 270.992188 158.8125 L 271.21875 161.289062 L 271.671875 166.046875 L 271.785156 167.195312 L 271.898438 168.328125 L 272.125 170.542969 L 272.578125 174.75 L 272.691406 175.757812 L 272.804688 176.742188 L 273.03125 178.65625 L 273.480469 182.25 L 273.59375 183.09375 L 273.707031 183.921875 L 273.933594 185.511719 L 274.386719 188.429688 L 274.5 189.105469 L 274.613281 189.757812 L 274.839844 191 L 274.953125 191.585938 L 275.066406 192.148438 L 275.292969 193.207031 L 275.40625 193.703125 L 275.519531 194.175781 L 275.746094 195.054688 L 275.859375 195.457031 L 275.972656 195.835938 L 276.199219 196.527344 L 276.3125 196.839844 L 276.425781 197.125 L 276.539062 197.390625 L 276.652344 197.628906 L 276.765625 197.847656 L 276.878906 198.039062 L 276.992188 198.210938 L 277.105469 198.359375 L 277.21875 198.480469 L 277.332031 198.582031 L 277.445312 198.660156 L 277.558594 198.714844 L 277.671875 198.746094 L 277.78125 198.753906 L 277.894531 198.738281 L 278.007812 198.699219 L 278.113281 198.644531 L 278.21875 198.570312 L 278.328125 198.472656 L 278.433594 198.359375 L 278.539062 198.226562 L 278.644531 198.070312 L 278.75 197.898438 L 278.855469 197.703125 L 278.960938 197.492188 L 279.066406 197.261719 L 279.171875 197.011719 L 279.277344 196.742188 L 279.382812 196.457031 L 279.488281 196.148438 L 279.699219 195.484375 L 279.804688 195.121094 L 279.910156 194.742188 L 280.121094 193.933594 L 280.226562 193.5 L 280.332031 193.050781 L 280.542969 192.101562 L 280.648438 191.597656 L 280.753906 191.082031 L 280.964844 189.996094 L 281.386719 187.636719 L 281.492188 187.007812 L 281.597656 186.363281 L 281.808594 185.027344 L 282.230469 182.1875 L 283.078125 175.871094 L 283.183594 175.023438 L 283.289062 174.167969 L 283.5 172.421875 L 283.921875 168.800781 L 284.765625 161.117188 L 284.878906 160.035156 L 284.996094 158.941406 L 285.222656 156.738281 L 285.683594 152.242188 L 286.597656 142.992188 L 288.429688 124.085938 L 288.542969 122.910156 L 288.660156 121.738281 L 288.886719 119.40625 L 289.34375 114.789062 L 290.261719 105.828125 L 290.375 104.738281 L 290.492188 103.65625 L 290.71875 101.519531 L 291.175781 97.355469 L 292.09375 89.515625 L 292.199219 88.648438 L 292.308594 87.792969 L 292.519531 86.109375 L 292.949219 82.878906 L 293.054688 82.101562 L 293.160156 81.335938 L 293.375 79.835938 L 293.804688 76.992188 L 293.910156 76.3125 L 294.015625 75.644531 L 294.230469 74.351562 L 294.65625 71.921875 L 294.765625 71.351562 L 294.871094 70.789062 L 295.085938 69.714844 L 295.511719 67.730469 L 295.621094 67.269531 L 295.726562 66.820312 L 295.941406 65.972656 L 296.046875 65.570312 L 296.152344 65.179688 L 296.367188 64.449219 L 296.476562 64.101562 L 296.582031 63.773438 L 296.796875 63.15625 L 296.902344 62.871094 L 297.007812 62.601562 L 297.222656 62.101562 L 297.328125 61.875 L 297.4375 61.664062 L 297.542969 61.464844 L 297.652344 61.28125 L 297.757812 61.113281 L 297.863281 60.960938 L 297.972656 60.824219 L 298.078125 60.699219 L 298.183594 60.589844 L 298.292969 60.492188 L 298.398438 60.414062 L 298.503906 60.347656 L 298.613281 60.292969 L 298.71875 60.257812 L 298.824219 60.234375 L 298.933594 60.222656 L 299.039062 60.226562 L 299.140625 60.246094 L 299.246094 60.277344 L 299.351562 60.324219 L 299.457031 60.382812 L 299.5625 60.453125 L 299.667969 60.539062 L 299.769531 60.636719 L 299.875 60.746094 L 299.980469 60.871094 L 300.085938 61.007812 L 300.191406 61.15625 L 300.292969 61.316406 L 300.398438 61.492188 L 300.609375 61.878906 L 300.714844 62.089844 L 300.820312 62.3125 L 301.027344 62.792969 L 301.132812 63.054688 L 301.238281 63.324219 L 301.449219 63.898438 L 301.65625 64.519531 L 301.867188 65.183594 L 302.285156 66.640625 L 302.390625 67.03125 L 302.496094 67.429688 L 302.703125 68.257812 L 303.125 70.03125 L 303.960938 73.988281 L 304.066406 74.519531 L 304.171875 75.058594 L 304.378906 76.15625 L 304.800781 78.433594 L 305.636719 83.269531 L 305.75 83.953125 L 305.867188 84.640625 L 306.09375 86.027344 L 306.546875 88.859375 L 307.457031 94.6875 L 309.277344 106.578125 L 309.390625 107.316406 L 309.730469 109.519531 L 310.183594 112.417969 L 311.09375 118.042969 L 311.320312 119.402344 L 311.550781 120.742188 L 312.003906 123.359375 L 312.914062 128.285156 L 313.019531 128.832031 L 313.125 129.371094 L 313.335938 130.429688 L 313.761719 132.464844 L 313.867188 132.957031 L 313.972656 133.441406 L 314.1875 134.386719 L 314.609375 136.191406 L 314.714844 136.621094 L 314.824219 137.046875 L 315.035156 137.871094 L 315.460938 139.425781 L 315.566406 139.792969 L 315.671875 140.152344 L 315.882812 140.847656 L 316.308594 142.136719 L 316.414062 142.4375 L 316.519531 142.730469 L 316.730469 143.289062 L 316.839844 143.554688 L 316.945312 143.8125 L 317.15625 144.304688 L 317.261719 144.539062 L 317.367188 144.761719 L 317.582031 145.183594 L 317.6875 145.382812 L 317.792969 145.570312 L 318.003906 145.925781 L 318.109375 146.089844 L 318.21875 146.242188 L 318.324219 146.390625 L 318.429688 146.527344 L 318.535156 146.65625 L 318.640625 146.777344 L 318.851562 146.996094 L 318.960938 147.089844 L 319.066406 147.179688 L 319.171875 147.257812 L 319.277344 147.328125 L 319.382812 147.390625 L 319.488281 147.441406 L 319.597656 147.488281 L 319.703125 147.527344 L 319.816406 147.558594 L 319.933594 147.578125 L 320.046875 147.589844 L 320.160156 147.59375 L 320.277344 147.585938 L 320.390625 147.570312 L 320.507812 147.546875 L 320.621094 147.511719 L 320.738281 147.46875 L 320.851562 147.417969 L 320.964844 147.355469 L 321.082031 147.285156 L 321.195312 147.207031 L 321.3125 147.121094 L 321.425781 147.023438 L 321.542969 146.921875 L 321.65625 146.808594 L 321.773438 146.6875 L 322 146.421875 L 322.117188 146.277344 L 322.230469 146.125 L 322.460938 145.792969 L 322.578125 145.617188 L 322.691406 145.4375 L 322.921875 145.046875 L 323.382812 144.183594 L 323.496094 143.953125 L 323.609375 143.714844 L 323.839844 143.21875 L 324.300781 142.152344 L 325.222656 139.757812 L 325.449219 139.109375 L 325.679688 138.445312 L 326.140625 137.066406 L 327.0625 134.152344 L 327.167969 133.800781 L 327.277344 133.449219 L 327.492188 132.734375 L 327.917969 131.289062 L 328.777344 128.347656 L 330.496094 122.4375 L 330.605469 122.074219 L 330.710938 121.714844 L 330.925781 120.992188 L 331.355469 119.570312 L 332.214844 116.824219 L 332.320312 116.488281 L 332.429688 116.15625 L 332.644531 115.503906 L 333.074219 114.230469 L 333.933594 111.832031 L 334.039062 111.550781 L 334.144531 111.273438 L 334.351562 110.734375 L 334.773438 109.691406 L 334.878906 109.441406 L 334.984375 109.195312 L 335.195312 108.710938 L 335.617188 107.789062 L 335.722656 107.566406 L 335.828125 107.351562 L 336.039062 106.929688 L 336.457031 106.136719 L 336.667969 105.761719 L 336.878906 105.40625 L 337.300781 104.746094 L 337.40625 104.589844 L 337.511719 104.441406 L 337.722656 104.152344 L 337.933594 103.878906 L 338.144531 103.625 L 338.25 103.503906 L 338.351562 103.386719 L 338.5625 103.167969 L 338.667969 103.0625 L 338.773438 102.964844 L 338.984375 102.777344 L 339.089844 102.6875 L 339.195312 102.605469 L 339.40625 102.453125 L 339.511719 102.382812 L 339.617188 102.316406 L 339.828125 102.195312 L 339.933594 102.140625 L 340.039062 102.089844 L 340.144531 102.042969 L 340.25 102.003906 L 340.351562 101.964844 L 340.457031 101.929688 L 340.667969 101.875 L 340.785156 101.851562 L 340.898438 101.832031 L 341.011719 101.816406 L 341.125 101.804688 L 341.238281 101.800781 L 341.355469 101.796875 L 341.46875 101.800781 L 341.582031 101.808594 L 341.695312 101.820312 L 341.8125 101.835938 L 341.925781 101.855469 L 342.039062 101.878906 L 342.152344 101.90625 L 342.269531 101.9375 L 342.382812 101.972656 L 342.609375 102.058594 L 342.722656 102.105469 L 342.839844 102.15625 L 343.066406 102.273438 L 343.179688 102.335938 L 343.410156 102.472656 L 343.636719 102.621094 L 343.867188 102.785156 L 344.324219 103.152344 L 344.550781 103.355469 L 344.78125 103.570312 L 345.238281 104.03125 L 346.148438 105.070312 L 346.265625 105.210938 L 346.378906 105.351562 L 346.605469 105.644531 L 347.0625 106.242188 L 347.976562 107.515625 L 348.082031 107.667969 L 348.191406 107.824219 L 348.402344 108.132812 L 348.828125 108.765625 L 349.683594 110.046875 L 351.386719 112.617188 L 351.492188 112.773438 L 351.601562 112.929688 L 351.8125 113.246094 L 352.238281 113.859375 L 353.089844 115.054688 L 353.199219 115.199219 L 353.304688 115.339844 L 353.519531 115.625 L 353.945312 116.175781 L 354.796875 117.21875 L 354.914062 117.351562 L 355.027344 117.484375 L 355.257812 117.742188 L 355.71875 118.238281 L 356.183594 118.703125 L 356.644531 119.136719 L 356.761719 119.238281 L 356.875 119.339844 L 357.105469 119.535156 L 357.566406 119.902344 L 357.800781 120.074219 L 358.03125 120.238281 L 358.492188 120.535156 L 358.609375 120.605469 L 358.722656 120.671875 L 358.953125 120.800781 L 359.070312 120.863281 L 359.183594 120.921875 L 359.414062 121.03125 L 359.53125 121.085938 L 359.648438 121.132812 L 359.878906 121.230469 L 359.992188 121.273438 L 360.109375 121.316406 L 360.339844 121.390625 L 360.457031 121.429688 L 360.570312 121.460938 L 360.6875 121.492188 L 360.800781 121.523438 L 360.917969 121.550781 L 361.03125 121.578125 L 361.148438 121.601562 L 361.261719 121.621094 L 361.496094 121.660156 L 361.609375 121.675781 L 361.726562 121.6875 L 361.839844 121.703125 L 361.957031 121.710938 L 362.070312 121.71875 L 362.1875 121.726562 L 362.414062 121.734375 L 362.753906 121.734375 L 362.867188 121.730469 L 363.320312 121.699219 L 363.433594 121.6875 L 363.773438 121.640625 L 364 121.605469 L 364.113281 121.582031 L 364.226562 121.5625 L 364.453125 121.511719 L 364.566406 121.488281 L 364.683594 121.460938 L 365.136719 121.335938 L 365.363281 121.265625 L 365.816406 121.117188 L 365.929688 121.074219 L 366.042969 121.035156 L 366.269531 120.949219 L 366.722656 120.765625 L 367.628906 120.359375 L 368.082031 120.140625 L 368.535156 119.914062 L 369.445312 119.433594 L 369.550781 119.378906 L 369.65625 119.320312 L 369.867188 119.207031 L 370.289062 118.972656 L 371.136719 118.507812 L 372.828125 117.585938 L 373.25 117.367188 L 373.675781 117.148438 L 374.519531 116.734375 L 374.625 116.683594 L 374.730469 116.636719 L 374.941406 116.539062 L 375.367188 116.347656 L 376.210938 115.996094 L 376.328125 115.949219 L 376.441406 115.90625 L 376.671875 115.816406 L 377.128906 115.652344 L 377.246094 115.613281 L 377.359375 115.574219 L 377.589844 115.496094 L 378.046875 115.355469 L 378.160156 115.320312 L 378.277344 115.285156 L 378.503906 115.222656 L 378.964844 115.101562 L 379.078125 115.074219 L 379.195312 115.046875 L 379.421875 114.996094 L 379.882812 114.898438 L 379.996094 114.875 L 380.109375 114.855469 L 380.339844 114.8125 L 380.457031 114.792969 L 380.570312 114.777344 L 380.800781 114.742188 L 380.914062 114.722656 L 381.027344 114.707031 L 381.257812 114.679688 L 381.371094 114.664062 L 381.488281 114.652344 L 381.714844 114.628906 L 381.832031 114.617188 L 381.945312 114.609375 L 382.058594 114.597656 L 382.175781 114.589844 L 382.289062 114.582031 L 382.40625 114.574219 L 382.632812 114.558594 L 382.75 114.554688 L 382.976562 114.546875 L 383.09375 114.542969 L 383.320312 114.535156 L 383.4375 114.535156 L 383.550781 114.53125 L 384.085938 114.53125 L 384.195312 114.535156 L 384.300781 114.535156 L 384.40625 114.539062 L 384.515625 114.542969 L 384.621094 114.546875 L 384.730469 114.550781 L 384.941406 114.558594 L 385.050781 114.5625 L 385.265625 114.574219 L 385.476562 114.589844 L 385.691406 114.601562 L 385.800781 114.613281 L 385.90625 114.621094 L 386.121094 114.636719 L 386.226562 114.648438 L 386.335938 114.65625 L 386.550781 114.675781 L 386.976562 114.722656 L 387.085938 114.734375 L 387.191406 114.746094 L 387.40625 114.769531 L 387.832031 114.824219 L 388.691406 114.941406 L 388.796875 114.957031 L 388.90625 114.972656 L 389.117188 115.003906 L 389.546875 115.070312 L 390.402344 115.207031 L 390.507812 115.226562 L 390.613281 115.242188 L 390.824219 115.277344 L 391.242188 115.347656 L 392.082031 115.488281 L 393.761719 115.761719 L 393.867188 115.777344 L 393.972656 115.796875 L 394.183594 115.828125 L 394.601562 115.894531 L 395.441406 116.015625 L 395.652344 116.046875 L 395.859375 116.078125 L 396.28125 116.132812 L 397.121094 116.238281 L 397.234375 116.25 L 397.347656 116.265625 L 397.574219 116.292969 L 398.03125 116.339844 L 398.257812 116.363281 L 398.488281 116.386719 L 398.941406 116.429688 L 399.054688 116.441406 L 399.171875 116.449219 L 399.851562 116.507812 L 399.96875 116.515625 L 400.308594 116.539062 L 400.765625 116.566406 L 400.992188 116.582031 L 401.21875 116.59375 L 401.332031 116.601562 L 401.449219 116.605469 L 401.675781 116.617188 L 401.902344 116.625 L 402.128906 116.636719 L 402.246094 116.640625 L 402.8125 116.660156 L 402.929688 116.664062 L 403.042969 116.664062 L 403.269531 116.671875 L 403.496094 116.675781 L 403.609375 116.679688 L 403.839844 116.679688 L 403.953125 116.683594 L 404.066406 116.683594 L 404.179688 116.6875 L 404.621094 116.6875 L 404.726562 116.691406 L 405.257812 116.691406 L 405.363281 116.6875 L 405.894531 116.6875 L 406.003906 116.683594 L 406.214844 116.683594 L 406.320312 116.679688 L 406.535156 116.679688 L 406.640625 116.675781 L 406.746094 116.675781 L 406.957031 116.671875 L 407.066406 116.667969 L 407.171875 116.667969 L 407.382812 116.660156 L 407.808594 116.652344 L 408.019531 116.644531 L 408.234375 116.640625 L 408.660156 116.625 L 409.507812 116.597656 L 409.613281 116.59375 L 409.722656 116.589844 L 409.933594 116.582031 L 410.359375 116.566406 L 411.207031 116.53125 L 411.328125 116.527344 L 411.445312 116.523438 L 411.683594 116.511719 L 412.15625 116.492188 L 413.105469 116.453125 L 413.226562 116.449219 L 413.34375 116.445312 L 413.582031 116.433594 L 414.054688 116.414062 L 415.003906 116.375 L 415.121094 116.371094 L 415.242188 116.367188 L 415.480469 116.355469 L 415.953125 116.339844 L 416.902344 116.304688 L 417.019531 116.300781 L 417.140625 116.296875 L 417.375 116.289062 L 417.851562 116.273438 L 417.96875 116.273438 L 418.089844 116.269531 L 418.324219 116.261719 L 418.445312 116.257812 L 418.679688 116.25 L 418.800781 116.246094 " transform="matrix(1,0,0,1,-66,-5)"/>
</g>
</svg>
