<?xml version="1.0" encoding="UTF-8" standalone="no"?>
<svg
   xmlns:dc="http://purl.org/dc/elements/1.1/"
   xmlns:cc="http://creativecommons.org/ns#"
   xmlns:rdf="http://www.w3.org/1999/02/22-rdf-syntax-ns#"
   xmlns:svg="http://www.w3.org/2000/svg"
   xmlns="http://www.w3.org/2000/svg"
   xmlns:sodipodi="http://sodipodi.sourceforge.net/DTD/sodipodi-0.dtd"
   xmlns:inkscape="http://www.inkscape.org/namespaces/inkscape"
   width="15.875mm"
   height="1.3290005mm"
   viewBox="0 0 15.875 1.3290005"
   version="1.1"
   id="svg2432"
   inkscape:version="1.0.2 (e86c8708, 2021-01-15)"
   sodipodi:docname="inductor_long.svg">
  <defs
     id="defs2426" />
  <sodipodi:namedview
     id="base"
     pagecolor="#ffffff"
     bordercolor="#666666"
     borderopacity="1.0"
     inkscape:pageopacity="0.0"
     inkscape:pageshadow="2"
     inkscape:zoom="11.391779"
     inkscape:cx="25.589563"
     inkscape:cy="-8.6747524"
     inkscape:document-units="mm"
     inkscape:current-layer="layer1"
     inkscape:document-rotation="0"
     showgrid="true"
     inkscape:window-width="1252"
     inkscape:window-height="943"
     inkscape:window-x="198"
     inkscape:window-y="26"
     inkscape:window-maximized="0">
    <inkscape:grid
       type="xygrid"
       id="grid3004"
       originx="-26.458333"
       originy="-156.23342" />
  </sodipodi:namedview>
  <metadata
     id="metadata2429">
    <rdf:RDF>
      <cc:Work
         rdf:about="">
        <dc:format>image/svg+xml</dc:format>
        <dc:type
           rdf:resource="http://purl.org/dc/dcmitype/StillImage" />
        <dc:title></dc:title>
      </cc:Work>
    </rdf:RDF>
  </metadata>
  <g
     inkscape:label="Layer 1"
     inkscape:groupmode="layer"
     id="layer1"
     transform="translate(-26.458333,-156.23342)">
    <g
       id="g3806">
      <path
         style="fill:none;fill-opacity:0.75;fill-rule:evenodd;stroke:#000000;stroke-width:0.270666px;stroke-linecap:butt;stroke-linejoin:miter;stroke-opacity:1"
         d="m 26.458333,157.42708 c 0.450496,0 0.20511,1e-5 1.224474,0 0,0 0,-1.05833 1.10756,-1.05833 1.10755,0 1.10755,1.05833 1.10755,1.05833 0,0 0,-1.05833 1.10757,-1.05833 1.10756,0 1.10756,1.05833 1.10756,1.05833 0,0 0,-1.05833 1.10755,-1.05833 1.10757,0 1.10757,1.05833 1.10757,1.05833"
         id="path1318"
         sodipodi:nodetypes="ccscscsc" />
      <path
         style="fill:none;fill-opacity:0.75;fill-rule:evenodd;stroke:#000000;stroke-width:0.270147px;stroke-linecap:butt;stroke-linejoin:miter;stroke-opacity:1"
         d="m 34.328167,157.42708 c 0,0 0,-1.05833 1.103318,-1.05833 1.103308,0 1.103308,1.05833 1.103308,1.05833 0,0 0,-1.05833 1.103328,-1.05833 1.103319,0 1.103319,1.05833 1.103319,1.05833 0,0 0,-1.05833 1.103308,-1.05833 1.103328,0 1.103328,1.05833 1.103328,1.05833 h 1.385257"
         id="path1318-4"
         sodipodi:nodetypes="cscscscc" />
    </g>
  </g>
</svg>
